<?xml version="1.0" encoding="utf-8"?>
<!-- Generator: Adobe Illustrator 19.0.0, SVG Export Plug-In . SVG Version: 6.00 Build 0)  -->
<svg version="1.1"
	 id="Layer_1" xmlns:dc="http://purl.org/dc/elements/1.1/" xmlns:cc="http://creativecommons.org/ns#" xmlns:rdf="http://www.w3.org/1999/02/22-rdf-syntax-ns#" xmlns:svg="http://www.w3.org/2000/svg" xmlns:sodipodi="http://sodipodi.sourceforge.net/DTD/sodipodi-0.dtd" xmlns:inkscape="http://www.inkscape.org/namespaces/inkscape"
	 xmlns="http://www.w3.org/2000/svg" xmlns:xlink="http://www.w3.org/1999/xlink" x="0px" y="0px" viewBox="-402.2 244.3 46.5 47.5"
	 style="enable-background:new -402.2 244.3 46.5 47.5;" xml:space="preserve">
<style type="text/css">
	.st0{fill:#FF9966;}
</style>
<g transform="translate(0,-952.36218)">
	<path class="st0" d="M-388.6,1198.4c-0.8,0-1.4,0.6-1.4,1.4v5.5c-1.7,0.6-2.9,2.2-2.9,4.1c0,2.4,1.9,4.3,4.3,4.3
		c2.4,0,4.3-1.9,4.3-4.3c0-1.9-1.2-3.5-2.9-4.1v-5.5C-387.1,1199-387.8,1198.4-388.6,1198.4z M-369.4,1198.4c-0.8,0-1.4,0.6-1.4,1.4
		v5.5c-1.7,0.6-2.9,2.2-2.9,4.1c0,2.4,1.9,4.3,4.3,4.3c2.4,0,4.3-1.9,4.3-4.3c0-1.9-1.2-3.5-2.9-4.1v-5.5
		C-368,1199-368.6,1198.4-369.4,1198.4z M-395.2,1201.2c-2.9,0-5.3,2.4-5.3,5.3v30.6c0,2.9,2.4,5.3,5.3,5.3h32.5
		c2.9,0,5.3-2.4,5.3-5.3v-30.6c0-2.9-2.4-5.3-5.3-5.3h-2.9c-0.8,0-1.5,0.7-1.5,1.4c0,0.8,0.7,1.4,1.5,1.4h2.9c1.4,0,2.4,1.1,2.4,2.4
		v8.1h-37.3v-8.1c0-1.4,1.1-2.4,2.4-2.4h2.9c0.8,0,1.4-0.7,1.4-1.4c0-0.8-0.7-1.4-1.4-1.4L-395.2,1201.2L-395.2,1201.2z
		 M-384.7,1201.2c-0.8,0-1.4,0.6-1.4,1.4s0.6,1.4,1.4,1.4h11.5c0.8,0,1.4-0.6,1.4-1.4s-0.6-1.4-1.4-1.4
		C-373.3,1201.2-384.7,1201.2-384.7,1201.2z M-388.6,1207.9c0.8,0,1.4,0.6,1.4,1.4s-0.6,1.4-1.4,1.4s-1.4-0.6-1.4-1.4
		S-389.4,1207.9-388.6,1207.9z M-369.4,1207.9c0.8,0,1.4,0.6,1.4,1.4s-0.6,1.4-1.4,1.4c-0.8,0-1.4-0.6-1.4-1.4
		S-370.2,1207.9-369.4,1207.9z M-397.7,1217.5h37.3v19.6c0,1.4-1.1,2.4-2.4,2.4h-32.5c-1.4,0-2.4-1.1-2.4-2.4V1217.5z"/>
</g>
</svg>
